<?xml version="1.0" standalone="no"?>
<!DOCTYPE svg PUBLIC "-//W3C//DTD SVG 20010904//EN"
 "http://www.w3.org/TR/2001/REC-SVG-20010904/DTD/svg10.dtd">
<svg version="1.0" xmlns="http://www.w3.org/2000/svg"
 width="1280.000000pt" height="720.000000pt" viewBox="0 0 1280.000000 720.000000"
 preserveAspectRatio="xMidYMid meet">

<g transform="translate(0.000000,720.000000) scale(0.100000,-0.100000)"
fill="#000000" stroke="none">
<path d="M4430 5150 l0 -420 420 0 420 0 0 420 0 420 -420 0 -420 0 0 -420z
m720 0 l0 -300 -300 0 -300 0 0 300 0 300 300 0 300 0 0 -300z"/>
<path d="M4670 5150 l0 -180 180 0 180 0 0 180 0 180 -180 0 -180 0 0 -180z"/>
<path d="M5630 5450 l0 -120 60 0 60 0 0 120 0 120 -60 0 -60 0 0 -120z"/>
<path d="M5870 5510 l0 -60 60 0 60 0 0 -60 0 -60 -60 0 -60 0 0 -120 0 -120
120 0 120 0 0 -60 0 -60 -180 0 -180 0 0 -60 0 -60 -60 0 -60 0 0 120 0 120
60 0 60 0 0 60 0 60 -180 0 -180 0 0 -60 0 -60 60 0 60 0 0 -60 0 -60 -60 0
-60 0 0 -120 0 -120 60 0 60 0 0 -60 0 -60 -180 0 -180 0 0 -60 0 -60 120 0
120 0 0 -60 0 -60 60 0 60 0 0 60 0 60 60 0 60 0 0 -120 0 -120 60 0 60 0 0
120 0 120 60 0 60 0 0 -60 0 -60 60 0 60 0 0 60 0 60 60 0 60 0 0 60 0 60 -60
0 -60 0 0 -60 0 -60 -60 0 -60 0 0 120 0 120 60 0 60 0 0 60 0 60 60 0 60 0 0
-60 0 -60 60 0 60 0 0 -120 0 -120 60 0 60 0 0 120 0 120 60 0 60 0 0 60 0 60
-60 0 -60 0 0 60 0 60 60 0 60 0 0 60 0 60 60 0 60 0 0 60 0 60 -60 0 -60 0 0
60 0 60 -60 0 -60 0 0 60 0 60 60 0 60 0 0 60 0 60 -60 0 -60 0 0 -60 0 -60
-120 0 -120 0 0 60 0 60 -120 0 -120 0 0 -60z m240 -240 l0 -60 -60 0 -60 0 0
60 0 60 60 0 60 0 0 -60z m240 0 l0 -60 60 0 60 0 0 -60 0 -60 -60 0 -60 0 0
-60 0 -60 -60 0 -60 0 0 -60 0 -60 60 0 60 0 0 -60 0 -60 -60 0 -60 0 0 60 0
60 -60 0 -60 0 0 60 0 60 60 0 60 0 0 60 0 60 60 0 60 0 0 60 0 60 -60 0 -60
0 0 60 0 60 60 0 60 0 0 -60z m-720 -480 l0 -60 -60 0 -60 0 0 60 0 60 60 0
60 0 0 -60z m240 0 l0 -60 -60 0 -60 0 0 60 0 60 60 0 60 0 0 -60z m-120 -240
l0 -60 -60 0 -60 0 0 60 0 60 60 0 60 0 0 -60z"/>
<path d="M6590 5450 l0 -120 60 0 60 0 0 -60 0 -60 60 0 60 0 0 -60 0 -60 -60
0 -60 0 0 -60 0 -60 120 0 120 0 0 120 0 120 60 0 60 0 0 -60 0 -60 60 0 60 0
0 -60 0 -60 -60 0 -60 0 0 -120 0 -120 -60 0 -60 0 0 60 0 60 -60 0 -60 0 0
-60 0 -60 60 0 60 0 0 -60 0 -60 60 0 60 0 0 -60 0 -60 -60 0 -60 0 0 -60 0
-60 -60 0 -60 0 0 60 0 60 -120 0 -120 0 0 60 0 60 60 0 60 0 0 120 0 120 -60
0 -60 0 0 -120 0 -120 -60 0 -60 0 0 -60 0 -60 60 0 60 0 0 -60 0 -60 -180 0
-180 0 0 -60 0 -60 60 0 60 0 0 -60 0 -60 60 0 60 0 0 -60 0 -60 -60 0 -60 0
0 -60 0 -60 -60 0 -60 0 0 120 0 120 -120 0 -120 0 0 60 0 60 -60 0 -60 0 0
-120 0 -120 120 0 120 0 0 -120 0 -120 60 0 60 0 0 -60 0 -60 -120 0 -120 0 0
-60 0 -60 -60 0 -60 0 0 120 0 120 60 0 60 0 0 60 0 60 -180 0 -180 0 0 -120
0 -120 -60 0 -60 0 0 -60 0 -60 -60 0 -60 0 0 180 0 180 -120 0 -120 0 0 -60
0 -60 60 0 60 0 0 -60 0 -60 -180 0 -180 0 0 -60 0 -60 -120 0 -120 0 0 -60 0
-60 -60 0 -60 0 0 120 0 120 120 0 120 0 0 60 0 60 60 0 60 0 0 60 0 60 60 0
60 0 0 60 0 60 180 0 180 0 0 120 0 120 -60 0 -60 0 0 60 0 60 -60 0 -60 0 0
-60 0 -60 -60 0 -60 0 0 60 0 60 -120 0 -120 0 0 -60 0 -60 -60 0 -60 0 0 60
0 60 -60 0 -60 0 0 60 0 60 240 0 240 0 0 60 0 60 -300 0 -300 0 0 -120 0
-120 60 0 60 0 0 -60 0 -60 -60 0 -60 0 0 -240 0 -240 60 0 60 0 0 -60 0 -60
-60 0 -60 0 0 -120 0 -120 60 0 60 0 0 -60 0 -60 -60 0 -60 0 0 -360 0 -360
60 0 60 0 0 240 0 240 60 0 60 0 0 60 0 60 -60 0 -60 0 0 60 0 60 60 0 60 0 0
60 0 60 120 0 120 0 0 60 0 60 60 0 60 0 0 -120 0 -120 -120 0 -120 0 0 -60 0
-60 60 0 60 0 0 -60 0 -60 60 0 60 0 0 -120 0 -120 -60 0 -60 0 0 60 0 60
-120 0 -120 0 0 -60 0 -60 60 0 60 0 0 -120 0 -120 120 0 120 0 0 60 0 60 60
0 60 0 0 -60 0 -60 60 0 60 0 0 60 0 60 60 0 60 0 0 180 0 180 -60 0 -60 0 0
60 0 60 60 0 60 0 0 60 0 60 60 0 60 0 0 -60 0 -60 60 0 60 0 0 -60 0 -60 -60
0 -60 0 0 -120 0 -120 60 0 60 0 0 -60 0 -60 -60 0 -60 0 0 -60 0 -60 -60 0
-60 0 0 -120 0 -120 60 0 60 0 0 120 0 120 60 0 60 0 0 -180 0 -180 -120 0
-120 0 0 -300 0 -300 120 0 120 0 0 120 0 120 -60 0 -60 0 0 120 0 120 120 0
120 0 0 -60 0 -60 120 0 120 0 0 60 0 60 60 0 60 0 0 60 0 60 -60 0 -60 0 0
60 0 60 -60 0 -60 0 0 -60 0 -60 -60 0 -60 0 0 180 0 180 60 0 60 0 0 -60 0
-60 60 0 60 0 0 60 0 60 60 0 60 0 0 -120 0 -120 120 0 120 0 0 -60 0 -60 -60
0 -60 0 0 -60 0 -60 60 0 60 0 0 -60 0 -60 -60 0 -60 0 0 -180 0 -180 60 0 60
0 0 180 0 180 60 0 60 0 0 60 0 60 60 0 60 0 0 -60 0 -60 120 0 120 0 0 -60 0
-60 60 0 60 0 0 -60 0 -60 60 0 60 0 0 -60 0 -60 60 0 60 0 0 60 0 60 -60 0
-60 0 0 120 0 120 -60 0 -60 0 0 120 0 120 60 0 60 0 0 -60 0 -60 60 0 60 0 0
60 0 60 60 0 60 0 0 -180 0 -180 60 0 60 0 0 -60 0 -60 -60 0 -60 0 0 -60 0
-60 120 0 120 0 0 120 0 120 60 0 60 0 0 -120 0 -120 60 0 60 0 0 120 0 120
-60 0 -60 0 0 60 0 60 120 0 120 0 0 -60 0 -60 60 0 60 0 0 -60 0 -60 60 0 60
0 0 -60 0 -60 60 0 60 0 0 60 0 60 -60 0 -60 0 0 60 0 60 60 0 60 0 0 60 0 60
-60 0 -60 0 0 60 0 60 60 0 60 0 0 180 0 180 -180 0 -180 0 0 120 0 120 120 0
120 0 0 -60 0 -60 120 0 120 0 0 120 0 120 -60 0 -60 0 0 60 0 60 60 0 60 0 0
180 0 180 -60 0 -60 0 0 60 0 60 60 0 60 0 0 60 0 60 -180 0 -180 0 0 60 0 60
60 0 60 0 0 60 0 60 60 0 60 0 0 60 0 60 60 0 60 0 0 60 0 60 -60 0 -60 0 0
120 0 120 -60 0 -60 0 0 60 0 60 -60 0 -60 0 0 120 0 120 -60 0 -60 0 0 -120
0 -120 -60 0 -60 0 0 -60 0 -60 60 0 60 0 0 60 0 60 60 0 60 0 0 -120 0 -120
60 0 60 0 0 -60 0 -60 -60 0 -60 0 0 -120 0 -120 -60 0 -60 0 0 60 0 60 -60 0
-60 0 0 60 0 60 60 0 60 0 0 60 0 60 -120 0 -120 0 0 -60 0 -60 -60 0 -60 0 0
-60 0 -60 60 0 60 0 0 -60 0 -60 60 0 60 0 0 -60 0 -60 -60 0 -60 0 0 -60 0
-60 -60 0 -60 0 0 60 0 60 -180 0 -180 0 0 120 0 120 60 0 60 0 0 60 0 60 60
0 60 0 0 60 0 60 -60 0 -60 0 0 -60 0 -60 -60 0 -60 0 0 -60 0 -60 -60 0 -60
0 0 60 0 60 -120 0 -120 0 0 60 0 60 180 0 180 0 0 120 0 120 120 0 120 0 0
-60 0 -60 60 0 60 0 0 60 0 60 60 0 60 0 0 60 0 60 60 0 60 0 0 60 0 60 -60 0
-60 0 0 -60 0 -60 -60 0 -60 0 0 60 0 60 -120 0 -120 0 0 60 0 60 60 0 60 0 0
360 0 360 -60 0 -60 0 0 -180 0 -180 -60 0 -60 0 0 120 0 120 -60 0 -60 0 0
60 0 60 60 0 60 0 0 60 0 60 -60 0 -60 0 0 -60 0 -60 -60 0 -60 0 0 60 0 60
-180 0 -180 0 0 -120z m240 -60 l0 -60 -60 0 -60 0 0 60 0 60 60 0 60 0 0 -60z
m480 -540 l0 -120 -60 0 -60 0 0 120 0 120 60 0 60 0 0 -120z m-480 -540 l0
-60 -60 0 -60 0 0 -120 0 -120 -60 0 -60 0 0 60 0 60 -60 0 -60 0 0 60 0 60
120 0 120 0 0 60 0 60 60 0 60 0 0 -60z m-2160 -180 l0 -120 120 0 120 0 0
120 0 120 60 0 60 0 0 -120 0 -120 -60 0 -60 0 0 -60 0 -60 -60 0 -60 0 0 -60
0 -60 -60 0 -60 0 0 60 0 60 -60 0 -60 0 0 180 0 180 60 0 60 0 0 -120z m600
60 l0 -60 -60 0 -60 0 0 60 0 60 60 0 60 0 0 -60z m3000 -240 l0 -60 -60 0
-60 0 0 60 0 60 60 0 60 0 0 -60z m-1680 -180 l0 -120 -60 0 -60 0 0 -60 0
-60 60 0 60 0 0 -180 0 -180 60 0 60 0 0 120 0 120 120 0 120 0 0 120 0 120
60 0 60 0 0 -60 0 -60 60 0 60 0 0 -60 0 -60 60 0 60 0 0 60 0 60 60 0 60 0 0
-120 0 -120 60 0 60 0 0 60 0 60 60 0 60 0 0 60 0 60 120 0 120 0 0 -60 0 -60
60 0 60 0 0 -60 0 -60 -60 0 -60 0 0 -60 0 -60 120 0 120 0 0 -60 0 -60 60 0
60 0 0 -60 0 -60 -120 0 -120 0 0 -60 0 -60 -180 0 -180 0 0 -60 0 -60 -180 0
-180 0 0 -120 0 -120 -60 0 -60 0 0 -120 0 -120 -60 0 -60 0 0 180 0 180 -240
0 -240 0 0 60 0 60 -60 0 -60 0 0 -60 0 -60 -60 0 -60 0 0 -60 0 -60 120 0
120 0 0 -120 0 -120 120 0 120 0 0 -60 0 -60 -120 0 -120 0 0 60 0 60 -60 0
-60 0 0 60 0 60 -60 0 -60 0 0 60 0 60 -60 0 -60 0 0 120 0 120 60 0 60 0 0
60 0 60 60 0 60 0 0 120 0 120 -60 0 -60 0 0 -60 0 -60 -60 0 -60 0 0 -60 0
-60 -60 0 -60 0 0 -60 0 -60 -120 0 -120 0 0 60 0 60 60 0 60 0 0 60 0 60
-120 0 -120 0 0 -60 0 -60 -60 0 -60 0 0 60 0 60 60 0 60 0 0 120 0 120 -60 0
-60 0 0 60 0 60 -60 0 -60 0 0 60 0 60 60 0 60 0 0 60 0 60 120 0 120 0 0 -60
0 -60 120 0 120 0 0 60 0 60 120 0 120 0 0 60 0 60 60 0 60 0 0 120 0 120 60
0 60 0 0 -120z m480 60 l0 -60 -120 0 -120 0 0 -120 0 -120 -60 0 -60 0 0 180
0 180 180 0 180 0 0 -60z m-1800 -360 l0 -60 60 0 60 0 0 -60 0 -60 -60 0 -60
0 0 -60 0 -60 -60 0 -60 0 0 60 0 60 60 0 60 0 0 60 0 60 -60 0 -60 0 0 60 0
60 60 0 60 0 0 -60z m0 -480 l0 -60 -60 0 -60 0 0 60 0 60 60 0 60 0 0 -60z
m0 -240 l0 -60 -60 0 -60 0 0 60 0 60 60 0 60 0 0 -60z m3000 0 l0 -60 -60 0
-60 0 0 60 0 60 60 0 60 0 0 -60z m-2520 -120 l0 -60 -60 0 -60 0 0 60 0 60
60 0 60 0 0 -60z m2040 -240 l0 -180 -180 0 -180 0 0 180 0 180 180 0 180 0 0
-180z m-840 0 l0 -60 -120 0 -120 0 0 60 0 60 120 0 120 0 0 -60z m1200 -240
l0 -60 -60 0 -60 0 0 -60 0 -60 60 0 60 0 0 -60 0 -60 -60 0 -60 0 0 60 0 60
-60 0 -60 0 0 60 0 60 60 0 60 0 0 60 0 60 60 0 60 0 0 -60z m-480 -120 l0
-60 -60 0 -60 0 0 -60 0 -60 -60 0 -60 0 0 60 0 60 60 0 60 0 0 60 0 60 60 0
60 0 0 -60z"/>
<path d="M6350 3470 l0 -60 -60 0 -60 0 0 -120 0 -120 -120 0 -120 0 0 60 0
60 -60 0 -60 0 0 -120 0 -120 240 0 240 0 0 60 0 60 60 0 60 0 0 -60 0 -60 60
0 60 0 0 60 0 60 -60 0 -60 0 0 60 0 60 -60 0 -60 0 0 60 0 60 60 0 60 0 0 60
0 60 -60 0 -60 0 0 -60z"/>
<path d="M6950 3290 l0 -120 60 0 60 0 0 -60 0 -60 60 0 60 0 0 -60 0 -60
-180 0 -180 0 0 60 0 60 -60 0 -60 0 0 -60 0 -60 60 0 60 0 0 -120 0 -120 120
0 120 0 0 60 0 60 60 0 60 0 0 -60 0 -60 60 0 60 0 0 60 0 60 -60 0 -60 0 0
60 0 60 60 0 60 0 0 60 0 60 120 0 120 0 0 -120 0 -120 60 0 60 0 0 120 0 120
-60 0 -60 0 0 60 0 60 -60 0 -60 0 0 60 0 60 -60 0 -60 0 0 -120 0 -120 -60 0
-60 0 0 60 0 60 -60 0 -60 0 0 60 0 60 60 0 60 0 0 60 0 60 -120 0 -120 0 0
-120z"/>
<path d="M7790 3350 l0 -60 -60 0 -60 0 0 -60 0 -60 60 0 60 0 0 -60 0 -60 60
0 60 0 0 60 0 60 -60 0 -60 0 0 60 0 60 60 0 60 0 0 60 0 60 -60 0 -60 0 0
-60z"/>
<path d="M6590 2750 l0 -60 60 0 60 0 0 60 0 60 -60 0 -60 0 0 -60z"/>
<path d="M7550 2390 l0 -60 60 0 60 0 0 60 0 60 -60 0 -60 0 0 -60z"/>
<path d="M7550 5150 l0 -420 420 0 420 0 0 420 0 420 -420 0 -420 0 0 -420z
m720 0 l0 -300 -300 0 -300 0 0 300 0 300 300 0 300 0 0 -300z"/>
<path d="M7790 5150 l0 -180 180 0 180 0 0 180 0 180 -180 0 -180 0 0 -180z"/>
<path d="M5390 5390 l0 -60 60 0 60 0 0 60 0 60 -60 0 -60 0 0 -60z"/>
<path d="M8150 4550 l0 -60 60 0 60 0 0 -60 0 -60 60 0 60 0 0 60 0 60 -60 0
-60 0 0 60 0 60 -60 0 -60 0 0 -60z"/>
<path d="M5510 4070 l0 -60 120 0 120 0 0 60 0 60 -120 0 -120 0 0 -60z"/>
<path d="M4430 2030 l0 -420 420 0 420 0 0 420 0 420 -420 0 -420 0 0 -420z
m720 0 l0 -300 -300 0 -300 0 0 300 0 300 300 0 300 0 0 -300z"/>
<path d="M4670 2030 l0 -180 180 0 180 0 0 180 0 180 -180 0 -180 0 0 -180z"/>
<path d="M5750 1730 l0 -120 60 0 60 0 0 60 0 60 60 0 60 0 0 -60 0 -60 60 0
60 0 0 60 0 60 -60 0 -60 0 0 60 0 60 -120 0 -120 0 0 -120z"/>
<path d="M6470 1670 l0 -60 120 0 120 0 0 60 0 60 -120 0 -120 0 0 -60z"/>
</g>
</svg>
